<svg width="512" height="512" xmlns="http://www.w3.org/2000/svg"><g transform="matrix(1 0 0 1 256 256)"  ><g style=""   ><g transform="matrix(1 0 0 1 0 0)"  ><circle style="stroke: none; stroke-width: 1; stroke-dasharray: none; stroke-linecap: butt; stroke-dashoffset: 0; stroke-linejoin: miter; stroke-miterlimit: 4; fill: rgb(155,214,29); fill-rule: nonzero; opacity: 1;"  cx="0" cy="0" r="256" /></g><g transform="matrix(1 0 0 1 0 0)"  ><circle style="stroke: none; stroke-width: 1; stroke-dasharray: none; stroke-linecap: butt; stroke-dashoffset: 0; stroke-linejoin: miter; stroke-miterlimit: 4; fill: rgb(170,227,48); fill-rule: nonzero; opacity: 1;"  cx="0" cy="0" r="203" /></g><g transform="matrix(1 0 0 1 0 0)"  ><circle style="stroke: none; stroke-width: 1; stroke-dasharray: none; stroke-linecap: butt; stroke-dashoffset: 0; stroke-linejoin: miter; stroke-miterlimit: 4; fill: rgb(181,230,74); fill-rule: nonzero; opacity: 1;"  cx="0" cy="0" r="143" /></g><g transform="matrix(1 0 0 1 111.96 -91.04)"  ><path style="stroke: none; stroke-width: 1; stroke-dasharray: none; stroke-linecap: butt; stroke-dashoffset: 0; stroke-linejoin: miter; stroke-miterlimit: 4; fill: rgb(255,255,255); fill-rule: nonzero; opacity: 1;"  transform=" translate(-367.96, -164.96)" d="M 349.182 141.731 C 347.828 136.711 354.047 133.184 357.66 136.923 L 357.66 136.923 C 366.318 145.88 379.158 149.427 391.186 146.182 L 391.186 146.182 C 396.205 144.828 399.732 151.047 395.994 154.66 L 395.994 154.66 C 387.036 163.318 383.49 176.158 386.734 188.186 L 386.734 188.186 C 388.088 193.205 381.869 196.732 378.256 192.994 L 378.256 192.994 C 369.599 184.036 356.758 180.49 344.731 183.734 L 344.731 183.734 C 339.711 185.088 336.184 178.869 339.923 175.256 L 339.923 175.256 C 348.88 166.599 352.427 153.758 349.182 141.731 L 349.182 141.731 Z" stroke-linecap="round" /></g><g transform="matrix(1 0 0 1 0.5 0)"  ><path style="stroke: none; stroke-width: 1; stroke-dasharray: none; stroke-linecap: butt; stroke-dashoffset: 0; stroke-linejoin: miter; stroke-miterlimit: 4; fill: rgb(255,255,255); fill-rule: nonzero; opacity: 1;"  transform=" translate(-256.5, -256)" d="M 378.705 242.381 C 378.292 240.586 377.439 238.923 376.225 237.538 C 375.01 236.154 373.471 235.093 371.746 234.449 L 279.597 216.367 L 311.896 102.394 C 312.363 100.031 312.061 97.581 311.034 95.4024 C 310.007 93.2238 308.309 91.4313 306.189 90.2877 C 304.048 89.149 301.591 88.75 299.199 89.1527 C 296.808 89.5554 294.617 90.7372 292.967 92.5141 L 137.079 259.496 C 135.801 260.821 134.877 262.446 134.391 264.22 C 133.904 265.995 133.872 267.864 134.295 269.654 C 134.731 271.439 135.591 273.092 136.803 274.473 C 138.014 275.854 139.541 276.922 141.254 277.586 L 234.525 294.547 L 201.104 409.641 C 200.637 412.004 200.939 414.454 201.966 416.633 C 202.993 418.811 204.691 420.604 206.811 421.747 C 208.409 422.554 210.171 422.982 211.961 423 C 213.473 423.006 214.971 422.701 216.36 422.102 C 217.749 421.504 218.999 420.625 220.033 419.521 L 375.921 252.539 C 377.199 251.214 378.123 249.59 378.609 247.815 C 379.096 246.04 379.128 244.172 378.705 242.381 Z" stroke-linecap="round" /></g></g></g></svg>